<svg aria-roledescription="er" viewBox="0 0 468.658203125 298" style="max-width: 468.658px; background-color: white;" xmlns:xlink="http://www.w3.org/1999/xlink" xmlns="http://www.w3.org/2000/svg" width="100%" id="mermaid-0"><style>#mermaid-0{font-family:"trebuchet ms",verdana,arial,sans-serif;font-size:16px;fill:#000000;}#mermaid-0 .error-icon{fill:#552222;}#mermaid-0 .error-text{fill:#552222;stroke:#552222;}#mermaid-0 .edge-thickness-normal{stroke-width:2px;}#mermaid-0 .edge-thickness-thick{stroke-width:3.5px;}#mermaid-0 .edge-pattern-solid{stroke-dasharray:0;}#mermaid-0 .edge-pattern-dashed{stroke-dasharray:3;}#mermaid-0 .edge-pattern-dotted{stroke-dasharray:2;}#mermaid-0 .marker{fill:#000000;stroke:#000000;}#mermaid-0 .marker.cross{stroke:#000000;}#mermaid-0 svg{font-family:"trebuchet ms",verdana,arial,sans-serif;font-size:16px;}#mermaid-0 .entityBox{fill:#cde498;stroke:#13540c;}#mermaid-0 .attributeBoxOdd{fill:#ffffff;stroke:#13540c;}#mermaid-0 .attributeBoxEven{fill:#f2f2f2;stroke:#13540c;}#mermaid-0 .relationshipLabelBox{fill:hsl(78.1578947368, 58.4615384615%, 84.5098039216%);opacity:0.7;background-color:hsl(78.1578947368, 58.4615384615%, 84.5098039216%);}#mermaid-0 .relationshipLabelBox rect{opacity:0.5;}#mermaid-0 .relationshipLine{stroke:#000000;}#mermaid-0 .entityTitleText{text-anchor:middle;font-size:18px;fill:#000000;}#mermaid-0 :root{--mermaid-font-family:"trebuchet ms",verdana,arial,sans-serif;}</style><g/><defs><marker orient="auto" markerHeight="18" markerWidth="18" refY="9" refX="0" id="ONLY_ONE_START"><path d="M9,0 L9,18 M15,0 L15,18" fill="none" stroke="gray"/></marker></defs><defs><marker orient="auto" markerHeight="18" markerWidth="18" refY="9" refX="18" id="ONLY_ONE_END"><path d="M3,0 L3,18 M9,0 L9,18" fill="none" stroke="gray"/></marker></defs><defs><marker orient="auto" markerHeight="18" markerWidth="30" refY="9" refX="0" id="ZERO_OR_ONE_START"><circle r="6" cy="9" cx="21" fill="white" stroke="gray"/><path d="M9,0 L9,18" fill="none" stroke="gray"/></marker></defs><defs><marker orient="auto" markerHeight="18" markerWidth="30" refY="9" refX="30" id="ZERO_OR_ONE_END"><circle r="6" cy="9" cx="9" fill="white" stroke="gray"/><path d="M21,0 L21,18" fill="none" stroke="gray"/></marker></defs><defs><marker orient="auto" markerHeight="36" markerWidth="45" refY="18" refX="18" id="ONE_OR_MORE_START"><path d="M0,18 Q 18,0 36,18 Q 18,36 0,18 M42,9 L42,27" fill="none" stroke="gray"/></marker></defs><defs><marker orient="auto" markerHeight="36" markerWidth="45" refY="18" refX="27" id="ONE_OR_MORE_END"><path d="M3,9 L3,27 M9,18 Q27,0 45,18 Q27,36 9,18" fill="none" stroke="gray"/></marker></defs><defs><marker orient="auto" markerHeight="36" markerWidth="57" refY="18" refX="18" id="ZERO_OR_MORE_START"><circle r="6" cy="18" cx="48" fill="white" stroke="gray"/><path d="M0,18 Q18,0 36,18 Q18,36 0,18" fill="none" stroke="gray"/></marker></defs><defs><marker orient="auto" markerHeight="36" markerWidth="57" refY="18" refX="39" id="ZERO_OR_MORE_END"><circle r="6" cy="18" cx="9" fill="white" stroke="gray"/><path d="M21,18 Q39,0 57,18 Q39,36 21,18" fill="none" stroke="gray"/></marker></defs><path style="stroke: gray; fill: none;" marker-start="url(#ZERO_OR_MORE_START)" marker-end="url(#ONLY_ONE_END)" d="M81.078125,88L81.078125,96.33333333333333C81.078125,104.66666666666667,81.078125,121.33333333333333,85.4640899122807,138C89.85005482456141,154.66666666666666,98.62198464912281,171.33333333333334,103.0079495614035,179.66666666666666L107.3939144736842,188" class="er relationshipLine"/><path style="stroke: gray; fill: none;" marker-start="url(#ZERO_OR_MORE_START)" marker-end="url(#ONLY_ONE_END)" d="M359.4072730654762,77L365.45886036706344,87.16666666666667C371.5104476686508,97.33333333333333,383.61362227182536,117.66666666666667,389.6652095734127,138C395.716796875,158.33333333333334,395.716796875,178.66666666666666,395.716796875,188.83333333333334L395.716796875,199" class="er relationshipLine"/><path style="stroke: gray; fill: none;" marker-start="url(#ZERO_OR_MORE_START)" marker-end="url(#ONLY_ONE_END)" d="M315.8442847842262,77L302.6397685701885,87.16666666666667C289.4352523561508,97.33333333333333,263.02621992807536,117.66666666666667,240.56389121403768,136.16666666666666C218.1015625,154.66666666666666,199.5859375,171.33333333333334,190.328125,179.66666666666666L181.0703125,188" class="er relationshipLine"/><g transform="translate(65.8203125,188 )" id="entity-habits-ad7fd022-4a65-4017-88ea-693aca5538c8"><rect height="90" width="130.515625" y="0" x="0" class="er entityBox"/><text style="dominant-baseline: middle; text-anchor: middle; font-size: 12px;" transform="translate(65.2578125,12)" y="0" x="0" id="text-entity-habits-ad7fd022-4a65-4017-88ea-693aca5538c8" class="er entityLabel">habits</text><rect height="22" width="53.6640625" y="24" x="0" class="er attributeBoxOdd"/><text style="dominant-baseline: middle; font-size: 10.2px;" transform="translate(5,35)" y="0" x="0" id="text-entity-habits-ad7fd022-4a65-4017-88ea-693aca5538c8-attr-1-type" class="er entityLabel">String</text><rect height="22" width="55.2890625" y="24" x="53.6640625" class="er attributeBoxOdd"/><text style="dominant-baseline: middle; font-size: 10.2px;" transform="translate(58.6640625,35)" y="0" x="0" id="text-entity-habits-ad7fd022-4a65-4017-88ea-693aca5538c8-attr-1-name" class="er entityLabel">id</text><rect height="22" width="21.5625" y="24" x="108.953125" class="er attributeBoxOdd"/><text style="dominant-baseline: middle; font-size: 10.2px;" transform="translate(113.953125,35)" y="0" x="0" id="text-entity-habits-ad7fd022-4a65-4017-88ea-693aca5538c8-attr-1-key" class="er entityLabel">PK</text><rect height="22" width="53.6640625" y="46" x="0" class="er attributeBoxEven"/><text style="dominant-baseline: middle; font-size: 10.2px;" transform="translate(5,57)" y="0" x="0" id="text-entity-habits-ad7fd022-4a65-4017-88ea-693aca5538c8-attr-2-type" class="er entityLabel">String</text><rect height="22" width="55.2890625" y="46" x="53.6640625" class="er attributeBoxEven"/><text style="dominant-baseline: middle; font-size: 10.2px;" transform="translate(58.6640625,57)" y="0" x="0" id="text-entity-habits-ad7fd022-4a65-4017-88ea-693aca5538c8-attr-2-name" class="er entityLabel">title</text><rect height="22" width="21.5625" y="46" x="108.953125" class="er attributeBoxEven"/><text style="dominant-baseline: middle; font-size: 10.2px;" transform="translate(113.953125,57)" y="0" x="0" id="text-entity-habits-ad7fd022-4a65-4017-88ea-693aca5538c8-attr-2-key" class="er entityLabel"/><rect height="22" width="53.6640625" y="68" x="0" class="er attributeBoxOdd"/><text style="dominant-baseline: middle; font-size: 10.2px;" transform="translate(5,79)" y="0" x="0" id="text-entity-habits-ad7fd022-4a65-4017-88ea-693aca5538c8-attr-3-type" class="er entityLabel">DateTime</text><rect height="22" width="55.2890625" y="68" x="53.6640625" class="er attributeBoxOdd"/><text style="dominant-baseline: middle; font-size: 10.2px;" transform="translate(58.6640625,79)" y="0" x="0" id="text-entity-habits-ad7fd022-4a65-4017-88ea-693aca5538c8-attr-3-name" class="er entityLabel">createdAt</text><rect height="22" width="21.5625" y="68" x="108.953125" class="er attributeBoxOdd"/><text style="dominant-baseline: middle; font-size: 10.2px;" transform="translate(113.953125,79)" y="0" x="0" id="text-entity-habits-ad7fd022-4a65-4017-88ea-693aca5538c8-attr-3-key" class="er entityLabel"/></g><g transform="translate(20,20 )" id="entity-habitweekdays-7e8436ee-75ef-4bad-af35-a2b671089063"><rect height="68" width="122.15625" y="0" x="0" class="er entityBox"/><text style="dominant-baseline: middle; text-anchor: middle; font-size: 12px;" transform="translate(61.078125,12)" y="0" x="0" id="text-entity-habitweekdays-7e8436ee-75ef-4bad-af35-a2b671089063" class="er entityLabel">habit_week_days</text><rect height="22" width="41.044270833333336" y="24" x="0" class="er attributeBoxOdd"/><text style="dominant-baseline: middle; font-size: 10.2px;" transform="translate(5,35)" y="0" x="0" id="text-entity-habitweekdays-7e8436ee-75ef-4bad-af35-a2b671089063-attr-1-type" class="er entityLabel">String</text><rect height="22" width="55.028645833333336" y="24" x="41.044270833333336" class="er attributeBoxOdd"/><text style="dominant-baseline: middle; font-size: 10.2px;" transform="translate(46.044270833333336,35)" y="0" x="0" id="text-entity-habitweekdays-7e8436ee-75ef-4bad-af35-a2b671089063-attr-1-name" class="er entityLabel">id</text><rect height="22" width="26.083333333333332" y="24" x="96.07291666666667" class="er attributeBoxOdd"/><text style="dominant-baseline: middle; font-size: 10.2px;" transform="translate(101.07291666666667,35)" y="0" x="0" id="text-entity-habitweekdays-7e8436ee-75ef-4bad-af35-a2b671089063-attr-1-key" class="er entityLabel">PK</text><rect height="22" width="41.044270833333336" y="46" x="0" class="er attributeBoxEven"/><text style="dominant-baseline: middle; font-size: 10.2px;" transform="translate(5,57)" y="0" x="0" id="text-entity-habitweekdays-7e8436ee-75ef-4bad-af35-a2b671089063-attr-2-type" class="er entityLabel">Int</text><rect height="22" width="55.028645833333336" y="46" x="41.044270833333336" class="er attributeBoxEven"/><text style="dominant-baseline: middle; font-size: 10.2px;" transform="translate(46.044270833333336,57)" y="0" x="0" id="text-entity-habitweekdays-7e8436ee-75ef-4bad-af35-a2b671089063-attr-2-name" class="er entityLabel">weekDay</text><rect height="22" width="26.083333333333332" y="46" x="96.07291666666667" class="er attributeBoxEven"/><text style="dominant-baseline: middle; font-size: 10.2px;" transform="translate(101.07291666666667,57)" y="0" x="0" id="text-entity-habitweekdays-7e8436ee-75ef-4bad-af35-a2b671089063-attr-2-key" class="er entityLabel"/></g><g transform="translate(342.775390625,199 )" id="entity-days-a790c75b-640d-4702-86fd-5fea53d64e01"><rect height="68" width="105.8828125" y="0" x="0" class="er entityBox"/><text style="dominant-baseline: middle; text-anchor: middle; font-size: 12px;" transform="translate(52.94140625,12)" y="0" x="0" id="text-entity-days-a790c75b-640d-4702-86fd-5fea53d64e01" class="er entityLabel">days</text><rect height="22" width="53.6640625" y="24" x="0" class="er attributeBoxOdd"/><text style="dominant-baseline: middle; font-size: 10.2px;" transform="translate(5,35)" y="0" x="0" id="text-entity-days-a790c75b-640d-4702-86fd-5fea53d64e01-attr-1-type" class="er entityLabel">String</text><rect height="22" width="30.65625" y="24" x="53.6640625" class="er attributeBoxOdd"/><text style="dominant-baseline: middle; font-size: 10.2px;" transform="translate(58.6640625,35)" y="0" x="0" id="text-entity-days-a790c75b-640d-4702-86fd-5fea53d64e01-attr-1-name" class="er entityLabel">id</text><rect height="22" width="21.5625" y="24" x="84.3203125" class="er attributeBoxOdd"/><text style="dominant-baseline: middle; font-size: 10.2px;" transform="translate(89.3203125,35)" y="0" x="0" id="text-entity-days-a790c75b-640d-4702-86fd-5fea53d64e01-attr-1-key" class="er entityLabel">PK</text><rect height="22" width="53.6640625" y="46" x="0" class="er attributeBoxEven"/><text style="dominant-baseline: middle; font-size: 10.2px;" transform="translate(5,57)" y="0" x="0" id="text-entity-days-a790c75b-640d-4702-86fd-5fea53d64e01-attr-2-type" class="er entityLabel">DateTime</text><rect height="22" width="30.65625" y="46" x="53.6640625" class="er attributeBoxEven"/><text style="dominant-baseline: middle; font-size: 10.2px;" transform="translate(58.6640625,57)" y="0" x="0" id="text-entity-days-a790c75b-640d-4702-86fd-5fea53d64e01-attr-2-name" class="er entityLabel">date</text><rect height="22" width="21.5625" y="46" x="84.3203125" class="er attributeBoxEven"/><text style="dominant-baseline: middle; font-size: 10.2px;" transform="translate(89.3203125,57)" y="0" x="0" id="text-entity-days-a790c75b-640d-4702-86fd-5fea53d64e01-attr-2-key" class="er entityLabel"/></g><g transform="translate(295.716796875,31 )" id="entity-dayhabits-9f812538-bbd8-437b-bd60-4c80cd9297fd"><rect height="46" width="100" y="0" x="0" class="er entityBox"/><text style="dominant-baseline: middle; text-anchor: middle; font-size: 12px;" transform="translate(50,12)" y="0" x="0" id="text-entity-dayhabits-9f812538-bbd8-437b-bd60-4c80cd9297fd" class="er entityLabel">day_habits</text><rect height="22" width="44.296875" y="24" x="0" class="er attributeBoxOdd"/><text style="dominant-baseline: middle; font-size: 10.2px;" transform="translate(5,35)" y="0" x="0" id="text-entity-dayhabits-9f812538-bbd8-437b-bd60-4c80cd9297fd-attr-1-type" class="er entityLabel">String</text><rect height="22" width="26.3671875" y="24" x="44.296875" class="er attributeBoxOdd"/><text style="dominant-baseline: middle; font-size: 10.2px;" transform="translate(49.296875,35)" y="0" x="0" id="text-entity-dayhabits-9f812538-bbd8-437b-bd60-4c80cd9297fd-attr-1-name" class="er entityLabel">id</text><rect height="22" width="29.3359375" y="24" x="70.6640625" class="er attributeBoxOdd"/><text style="dominant-baseline: middle; font-size: 10.2px;" transform="translate(75.6640625,35)" y="0" x="0" id="text-entity-dayhabits-9f812538-bbd8-437b-bd60-4c80cd9297fd-attr-1-key" class="er entityLabel">PK</text></g><rect height="14" width="27.7265625" y="133.108642578125" x="72.1788101196289" class="er relationshipLabelBox"/><text style="text-anchor: middle; dominant-baseline: middle; font-size: 12px;" y="140.108642578125" x="86.0420913696289" id="rel1" class="er relationshipLabel">habit</text><rect height="14" width="18.9140625" y="127.78831481933594" x="379.203125" class="er relationshipLabelBox"/><text style="text-anchor: middle; dominant-baseline: middle; font-size: 12px;" y="134.78831481933594" x="388.66015625" id="rel2" class="er relationshipLabel">day</text><rect height="14" width="27.7265625" y="123.83596801757812" x="233.21792602539062" class="er relationshipLabelBox"/><text style="text-anchor: middle; dominant-baseline: middle; font-size: 12px;" y="130.83596801757812" x="247.08120727539062" id="rel3" class="er relationshipLabel">habit</text></svg>